<svg width="21" height="19" viewBox="0 0 21 19" fill="none" xmlns="http://www.w3.org/2000/svg">
<path d="M12.0416 5.07635H9.78072C9.39936 5.07635 9.09972 4.77671 9.09972 4.39535C9.09972 4.01399 9.39936 3.71436 9.78072 3.71436H12.4911C12.5319 3.71436 12.5728 3.71436 12.6137 3.72798C12.7226 3.7416 12.8316 3.78245 12.9133 3.85055C12.9814 3.90503 13.0359 3.95951 13.0904 4.04123C13.104 4.08209 13.1312 4.12295 13.1448 4.16381L14.6022 7.80033H15.2287C16.1317 7.80033 16.9978 8.15907 17.6364 8.79762C18.2749 9.43618 18.6337 10.3023 18.6337 11.2053C18.6337 12.1084 18.2749 12.9744 17.6364 13.613C16.9978 14.2515 16.1317 14.6103 15.2287 14.6103C14.7237 14.6104 14.225 14.4982 13.7688 14.2818C13.3125 14.0654 12.9101 13.7502 12.5907 13.3591C12.2713 12.968 12.0429 12.5107 11.922 12.0204C11.8011 11.5301 11.7908 11.0191 11.8918 10.5243H10.4617C10.4617 11.2734 9.84882 11.8863 9.09972 11.8863H7.66963C7.54646 12.4889 7.26235 13.0469 6.84749 13.501C6.43263 13.9551 5.90251 14.2884 5.31345 14.4654C4.72439 14.6424 4.09838 14.6565 3.50193 14.5063C2.90549 14.356 2.36087 14.047 1.92594 13.6121C1.49102 13.1772 1.18202 12.6326 1.03179 12.0361C0.881548 11.4397 0.895678 10.8137 1.07267 10.2246C1.24967 9.63555 1.58292 9.10543 2.03703 8.69057C2.49114 8.27571 3.04914 7.9916 3.65176 7.86843V7.80033H7.73773L12.6409 6.57454L12.0416 5.07635ZM6.25316 11.8863H5.01375C4.26465 11.8863 3.65176 11.2734 3.65176 10.5243V9.2849C3.32631 9.3993 3.03519 9.59435 2.8056 9.85181C2.57601 10.1093 2.41544 10.4208 2.33892 10.7571C2.2624 11.0935 2.27241 11.4438 2.36803 11.7752C2.46365 12.1067 2.64174 12.4085 2.88567 12.6524C3.1296 12.8963 3.43139 13.0744 3.76284 13.17C4.09429 13.2656 4.44457 13.2757 4.78094 13.1991C5.11731 13.1226 5.42879 12.9621 5.68625 12.7325C5.94372 12.5029 6.13876 12.2117 6.25316 11.8863ZM13.8803 9.66626C13.4581 10.0476 13.1857 10.5924 13.1857 11.2053C13.1857 12.3358 14.0982 13.2483 15.2287 13.2483C16.3591 13.2483 17.2717 12.3358 17.2717 11.2053C17.2717 10.0749 16.3591 9.16232 15.2287 9.16232H15.147L15.8552 10.9465C16.005 11.3006 15.828 11.6956 15.4875 11.8318C15.4053 11.8667 15.317 11.8848 15.2277 11.8852C15.1385 11.8855 15.0501 11.868 14.9676 11.8338C14.8852 11.7996 14.8104 11.7492 14.7477 11.6857C14.6849 11.6223 14.6355 11.5469 14.6022 11.4641L13.8803 9.66626ZM6.37574 7.11933H2.28977V5.07635H5.01375C5.76285 5.07635 6.37574 5.68924 6.37574 6.43834V7.11933Z" fill="#333333"/>
</svg>
